<?xml version="1.0" encoding="utf-8"?>
<!-- Generator: Adobe Illustrator 19.2.1, SVG Export Plug-In . SVG Version: 6.00 Build 0)  -->
<!DOCTYPE svg PUBLIC "-//W3C//DTD SVG 1.1//EN" "http://www.w3.org/Graphics/SVG/1.1/DTD/svg11.dtd">
<svg version="1.1" id="Layer_1" xmlns="http://www.w3.org/2000/svg" xmlns:xlink="http://www.w3.org/1999/xlink" x="0px" y="0px"
	 viewBox="0 0 223 247" style="enable-background:new 0 0 223 247;" xml:space="preserve">
<style type="text/css">
	.st0{fill:#EF3D23;}
	.st1{fill:#FFFFFF;stroke:#000000;stroke-width:0.25;stroke-miterlimit:2.6131;}
</style>
<g>
	<path class="st0" d="M137,183.6c-9.4,3.8-19.5,5.8-29.8,5.8c-21.3,0-41.5-8.4-56.5-23.4s-23.4-35.2-23.4-56.5
		c0-10.5,2.1-20.9,6.1-30.6c2.6-6.3,6-12.3,10.2-17.7c-2.1-4.6-4.3-9.2-6.7-13.6l-1.1-2.1l2.3-0.5c1.7-0.5,6.1-3.3,7.7-4.3
		c4.9-2.9,9.7-5.9,14.5-8.9c7.5-4.6,15-9.3,22.5-14.1l0.6-0.4L183,31l-0.7,2.1c-11.5,32.7-20,67.8-18.5,102.7v0.4l-0.2,0.4
		c-3.3,7.7-8.1,14.6-14,20.5c-2.4,2.4-4.9,4.6-7.6,6.6c3.9-2.5,7.5-5.4,10.8-8.7c10-10,16.5-23,18.3-37l-3-0.3l0.7-7.5l-1.9-0.2
		l1.9-20.4c0.5-5.9,1.5-12.6,3.8-18.1c1.9-4.7,5-8.6,8.9-11.8c4.4-3.6,9.6-5.8,15.1-7.2l1.6-0.4l5.3,14.7l-2,0.5
		c-3.9,0.9-8.1,2.5-10.8,5.6c-2.2,2.5-3.4,5.8-4,9.2l12.4,1.1l-2.7,29.5l-2.6-0.2l-0.7,7.5l-6.6-0.6c-2,16.1-8.9,31.1-19.6,43.2
		l0.1,0.5c3.1,15.2,8.3,29.7,15.4,43.4l1.1,2.1l-77.1,16.6l-67.3-23.9l1.1-1.9c5.1-8.5,9.4-17.5,12.6-27l0.9-2.6l2,1.8
		c13.7,12.2,31.2,18.9,49.6,18.9C116.5,190.6,127.2,188.2,137,183.6L137,183.6z M58.2,151.3c4-24.7,0.6-49.1-7.6-72.6
		c-1.1,2-2.1,4-2.9,6.1c-3.2,7.8-4.9,16.2-4.9,24.7C42.8,124.8,48.2,139.6,58.2,151.3L58.2,151.3z M59.1,44.7c2.2,0.4,4.3,1.3,6,2.9
		c1.7,1.6,2.9,3.6,3.4,5.8c0.3-2.4-0.6-5-2.5-6.7C64.1,44.9,61.5,44.2,59.1,44.7L59.1,44.7z M107.6,33.8
		c-10.7-1.6-10.2,3.3-9.5,11.9c1,12.3,1.9,25.4,1.5,37.8c-0.1,3.3,1.9,4.3,5.1,4.4c15.9,0.8,31.8,2.2,47.5,4.3
		c3,0.4,3.1-2.4,3.4-4.7c1.3-11.5,4.8-24.3,8-35.4c0.6-2.2,2.2-7.9,0.3-9.9c-1.4-1.4-5.8-1.8-7.8-2.1
		C140,37.8,123.7,36.1,107.6,33.8L107.6,33.8z M122.5,136.5l11.5,0.3l-3.3-15.9l1.1-0.7c1.6-0.9,2.5-2.7,2.6-4.5
		c0.2-2.9-1.8-5.8-4.8-6.1c-3-0.2-5.2,2.3-5.4,5.2c-0.1,1.9,0.7,3.9,2.3,5.1l1,0.8L122.5,136.5z"/>
</g>
<g>
	<path class="st1" d="M165.5,160.9c3,14.9,8.1,29.5,15.6,43.9l-74.3,16l-64.8-23c5.4-9,9.6-18.1,12.8-27.3
		c13.5,12.1,31.3,19.4,50.8,19.4c21.1,0,40.1-8.5,53.9-22.3C161.7,165.5,163.7,163.3,165.5,160.9z"/>
	<path class="st1" d="M38.7,44.1c3-0.7,45.3-27.5,45.3-27.5L180.8,30c-12.3,35.1-20,69.7-18.6,103.4c-3.2,7.5-7.9,14.3-13.6,20
		c-11.6,11.6-27.7,18.9-45.5,18.9c-4.3,0-8.6-0.4-12.7-1.2c5.4,1.4,11.1,2.2,17,2.2c18.3,0,34.9-7.4,46.8-19.4
		c10.5-10.5,17.4-24.4,19-39.9l-3.1-0.3l0.7-7.5l-1.9-0.2l1.7-18.6c0.7-7.5,1.9-13.4,3.6-17.6c1.7-4.2,4.5-7.9,8.4-11
		s8.7-5.4,14.4-6.9l4.1,11.3c-5.3,1.3-9.2,3.3-11.7,6.2s-4.1,6.9-4.7,12l12.5,1.2l-2.4,25.9l-2.6-0.2l-0.7,7.5l-6.6-0.6
		c-1.9,18.4-10.1,34.9-22.5,47.2c-14.1,14.1-33.7,22.9-55.2,22.9c-21.6,0-41.1-8.7-55.2-22.9c-14.1-14.1-22.9-33.7-22.9-55.2
		c0-10.3,2.1-20.5,6-29.9c2.7-6.5,6.2-12.6,10.6-18.2C43.7,54,41.3,49,38.7,44.1L38.7,44.1z M59.6,152.7L59.6,152.7
		c5-26.3,1.8-53.3-8.4-80.8c-1.9,3.1-3.6,6.3-5,9.7c-3.3,7.9-5,16.6-5,25.4C41.2,124.7,48.2,140.8,59.6,152.7L59.6,152.7z
		 M53.6,51.3L53.6,51.3c-0.3,0.3-0.6,0.7-0.8,1.1c2-1.3,4.7-1.1,6.6,0.6c1.8,1.7,2.2,4.4,1.1,6.5c0.4-0.2,0.7-0.5,1-0.9
		c2-2.2,1.9-5.6-0.3-7.6C59,49,55.6,49.1,53.6,51.3L53.6,51.3z M53.6,43.4L53.6,43.4c-0.6,0.6-1.1,1.3-1.4,2c3.7-2.4,8.6-2.1,12,1
		s4.1,8,2,11.9c0.7-0.4,1.3-1,1.9-1.6c3.7-4,3.4-10.2-0.6-13.9C63.5,39.2,57.3,39.4,53.6,43.4L53.6,43.4z M108.1,29.5L108.1,29.5
		C94.8,27.6,96,35.6,96.6,43.3c1,12.7,1.9,27.3,1.5,37.6c-0.1,3.1,1.2,6,6.8,6.3c15.7,0.8,31.7,2.2,47.4,4.3c4.2,0.6,5-2.7,5.4-6.3
		c1.1-9.5,4.7-23.7,8-35.1c3.7-13.1-1.1-13.1-9-14.2C140.5,33.5,124.3,31.9,108.1,29.5L108.1,29.5z M130.1,105.4L130.1,105.4
		c-3.8-0.3-7.1,2.8-7.3,6.9c-0.1,2.7,1.1,5.1,3,6.6l-5.4,17l8.1,0.2l8.1,0.2l-3.5-16.9c2-1.2,3.4-3.4,3.5-6
		C136.8,109.2,133.9,105.7,130.1,105.4z"/>
</g>
</svg>
